<?xml version="1.0" encoding="UTF-8" standalone="no"?>
<!-- Created with matplotlib (https://matplotlib.org/) -->

<svg
   xmlns:dc="http://purl.org/dc/elements/1.1/"
   xmlns:cc="http://creativecommons.org/ns#"
   xmlns:rdf="http://www.w3.org/1999/02/22-rdf-syntax-ns#"
   xmlns:svg="http://www.w3.org/2000/svg"
   xmlns="http://www.w3.org/2000/svg"
   xmlns:xlink="http://www.w3.org/1999/xlink"
   xmlns:sodipodi="http://sodipodi.sourceforge.net/DTD/sodipodi-0.dtd"
   xmlns:inkscape="http://www.inkscape.org/namespaces/inkscape"
   height="288pt"
   version="1.1"
   viewBox="0 0 432 288"
   width="432pt"
   id="svg2"
   inkscape:version="0.91 r13725"
   sodipodi:docname="z.svg">
  <metadata
     id="metadata273">
    <rdf:RDF>
      <cc:Work
         rdf:about="">
        <dc:format>image/svg+xml</dc:format>
        <dc:type
           rdf:resource="http://purl.org/dc/dcmitype/StillImage" />
      </cc:Work>
    </rdf:RDF>
  </metadata>
  <sodipodi:namedview
     pagecolor="#ffffff"
     bordercolor="#666666"
     borderopacity="1"
     objecttolerance="10"
     gridtolerance="10"
     guidetolerance="10"
     inkscape:pageopacity="0"
     inkscape:pageshadow="2"
     inkscape:window-width="1920"
     inkscape:window-height="1017"
     id="namedview271"
     showgrid="false"
     inkscape:zoom="1.5084945"
     inkscape:cx="199.80262"
     inkscape:cy="131.10728"
     inkscape:window-x="-8"
     inkscape:window-y="-8"
     inkscape:window-maximized="1"
     inkscape:current-layer="axes_1" />
  <defs
     id="defs4">
    <style
       type="text/css"
       id="style6">
*{stroke-linecap:butt;stroke-linejoin:round;}
  </style>
  </defs>
  <g
     id="figure_1">
    <g
       id="axes_1">
      <g
         id="g4463">
        <g
           id="matplotlib.axis_2">
          <g
             id="ytick_1">
            <g
               id="text_2">
              <!-- 0 -->
              <g
                 id="g29"
                 transform="translate(42.31375 44.505949)rotate(-90)scale(0.11 -0.11)"
                 style="fill:#262626;">
                <path
                   style="stroke-linecap:butt;stroke-linejoin:round"
                   inkscape:connector-curvature="0"
                   d="m 4.15625,35.296875 q 0,12.703125 2.609375,20.4375 2.609375,7.75 7.75,11.9375 5.15625,4.203125 12.96875,4.203125 5.765625,0 10.109375,-2.328125 4.34375,-2.3125 7.171875,-6.6875 Q 47.609375,58.5 49.21875,52.21875 q 1.609375,-6.265625 1.609375,-16.921875 0,-12.59375 -2.59375,-20.328125 Q 45.65625,7.234375 40.5,3 35.359375,-1.21875 27.484375,-1.21875 q -10.34375,0 -16.25,7.421875 -7.078125,8.9375 -7.078125,29.09375 z m 9.03125,0 q 0,-17.625 4.125,-23.46875 Q 21.4375,6 27.484375,6 q 6.0625,0 10.1875,5.859375 4.125,5.859375 4.125,23.4375 0,17.6875 -4.125,23.484375 -4.125,5.8125 -10.28125,5.8125 -6.046875,0 -9.671875,-5.125 Q 13.1875,52.9375 13.1875,35.296875 Z"
                   id="use31" />
              </g>
            </g>
          </g>
          <g
             id="ytick_2">
            <g
               id="text_3">
              <!-- 1 -->
              <defs
                 id="defs35">
                <path
                   id="ArialMT-49"
                   d="M 37.25 0  L 28.46875 0  L 28.46875 56  Q 25.296875 52.984375 20.140625 49.953125  Q 14.984375 46.921875 10.890625 45.40625  L 10.890625 53.90625  Q 18.265625 57.375 23.78125 62.296875  Q 29.296875 67.234375 31.59375 71.875  L 37.25 71.875  z " />
              </defs>
              <g
                 id="g38"
                 transform="translate(42.31375 60.037377)rotate(-90)scale(0.11 -0.11)"
                 style="fill:#262626;">
                <use
                   id="use40"
                   xlink:href="#ArialMT-49" />
              </g>
            </g>
          </g>
          <g
             id="ytick_3">
            <g
               id="text_4">
              <!-- 2 -->
              <defs
                 id="defs44">
                <path
                   id="ArialMT-50"
                   d="M 50.34375 8.453125  L 50.34375 0  L 3.03125 0  Q 2.9375 3.171875 4.046875 6.109375  Q 5.859375 10.9375 9.828125 15.625  Q 13.8125 20.3125 21.34375 26.46875  Q 33.015625 36.03125 37.109375 41.625  Q 41.21875 47.21875 41.21875 52.203125  Q 41.21875 57.421875 37.46875 61  Q 33.734375 64.59375 27.734375 64.59375  Q 21.390625 64.59375 17.578125 60.78125  Q 13.765625 56.984375 13.71875 50.25  L 4.6875 51.171875  Q 5.609375 61.28125 11.65625 66.578125  Q 17.71875 71.875 27.9375 71.875  Q 38.234375 71.875 44.234375 66.15625  Q 50.25 60.453125 50.25 52  Q 50.25 47.703125 48.484375 43.546875  Q 46.734375 39.40625 42.65625 34.8125  Q 38.578125 30.21875 29.109375 22.21875  Q 21.1875 15.578125 18.9375 13.203125  Q 16.703125 10.84375 15.234375 8.453125  z " />
              </defs>
              <g
                 id="g47"
                 transform="translate(42.31375 75.568806)rotate(-90)scale(0.11 -0.11)"
                 style="fill:#262626;">
                <use
                   id="use49"
                   xlink:href="#ArialMT-50" />
              </g>
            </g>
          </g>
          <g
             id="ytick_4">
            <g
               id="text_5">
              <!-- 3 -->
              <defs
                 id="defs53">
                <path
                   id="ArialMT-51"
                   d="M 4.203125 18.890625  L 12.984375 20.0625  Q 14.5 12.59375 18.140625 9.296875  Q 21.78125 6 27 6  Q 33.203125 6 37.46875 10.296875  Q 41.75 14.59375 41.75 20.953125  Q 41.75 27 37.796875 30.921875  Q 33.84375 34.859375 27.734375 34.859375  Q 25.25 34.859375 21.53125 33.890625  L 22.515625 41.609375  Q 23.390625 41.5 23.921875 41.5  Q 29.546875 41.5 34.03125 44.421875  Q 38.53125 47.359375 38.53125 53.46875  Q 38.53125 58.296875 35.25 61.46875  Q 31.984375 64.65625 26.8125 64.65625  Q 21.6875 64.65625 18.265625 61.421875  Q 14.84375 58.203125 13.875 51.765625  L 5.078125 53.328125  Q 6.6875 62.15625 12.390625 67.015625  Q 18.109375 71.875 26.609375 71.875  Q 32.46875 71.875 37.390625 69.359375  Q 42.328125 66.84375 44.9375 62.5  Q 47.5625 58.15625 47.5625 53.265625  Q 47.5625 48.640625 45.0625 44.828125  Q 42.578125 41.015625 37.703125 38.765625  Q 44.046875 37.3125 47.5625 32.6875  Q 51.078125 28.078125 51.078125 21.140625  Q 51.078125 11.765625 44.234375 5.25  Q 37.40625 -1.265625 26.953125 -1.265625  Q 17.53125 -1.265625 11.296875 4.34375  Q 5.078125 9.96875 4.203125 18.890625  z " />
              </defs>
              <g
                 id="g56"
                 transform="translate(42.31375 91.100234)rotate(-90)scale(0.11 -0.11)"
                 style="fill:#262626;">
                <use
                   id="use58"
                   xlink:href="#ArialMT-51" />
              </g>
            </g>
          </g>
          <g
             id="ytick_5">
            <g
               id="text_6">
              <!-- 4 -->
              <defs
                 id="defs62">
                <path
                   id="ArialMT-52"
                   d="M 32.328125 0  L 32.328125 17.140625  L 1.265625 17.140625  L 1.265625 25.203125  L 33.9375 71.578125  L 41.109375 71.578125  L 41.109375 25.203125  L 50.78125 25.203125  L 50.78125 17.140625  L 41.109375 17.140625  L 41.109375 0  z M 32.328125 25.203125  L 32.328125 57.46875  L 9.90625 25.203125  z " />
              </defs>
              <g
                 id="g65"
                 transform="translate(42.31375 106.631663)rotate(-90)scale(0.11 -0.11)"
                 style="fill:#262626;">
                <use
                   id="use67"
                   xlink:href="#ArialMT-52" />
              </g>
            </g>
          </g>
          <g
             id="ytick_6">
            <g
               id="text_7">
              <!-- 5 -->
              <defs
                 id="defs71">
                <path
                   id="ArialMT-53"
                   d="M 4.15625 18.75  L 13.375 19.53125  Q 14.40625 12.796875 18.140625 9.390625  Q 21.875 6 27.15625 6  Q 33.5 6 37.890625 10.78125  Q 42.28125 15.578125 42.28125 23.484375  Q 42.28125 31 38.0625 35.34375  Q 33.84375 39.703125 27 39.703125  Q 22.75 39.703125 19.328125 37.765625  Q 15.921875 35.84375 13.96875 32.765625  L 5.71875 33.84375  L 12.640625 70.609375  L 48.25 70.609375  L 48.25 62.203125  L 19.671875 62.203125  L 15.828125 42.96875  Q 22.265625 47.46875 29.34375 47.46875  Q 38.71875 47.46875 45.15625 40.96875  Q 51.609375 34.46875 51.609375 24.265625  Q 51.609375 14.546875 45.953125 7.46875  Q 39.0625 -1.21875 27.15625 -1.21875  Q 17.390625 -1.21875 11.203125 4.25  Q 5.03125 9.71875 4.15625 18.75  z " />
              </defs>
              <g
                 id="g74"
                 transform="translate(42.31375 122.163092)rotate(-90)scale(0.11 -0.11)"
                 style="fill:#262626;">
                <use
                   id="use76"
                   xlink:href="#ArialMT-53" />
              </g>
            </g>
          </g>
          <g
             id="ytick_7">
            <g
               id="text_8">
              <!-- 6 -->
              <defs
                 id="defs80">
                <path
                   id="ArialMT-54"
                   d="M 49.75 54.046875  L 41.015625 53.375  Q 39.84375 58.546875 37.703125 60.890625  Q 34.125 64.65625 28.90625 64.65625  Q 24.703125 64.65625 21.53125 62.3125  Q 17.390625 59.28125 14.984375 53.46875  Q 12.59375 47.65625 12.5 36.921875  Q 15.671875 41.75 20.265625 44.09375  Q 24.859375 46.4375 29.890625 46.4375  Q 38.671875 46.4375 44.84375 39.96875  Q 51.03125 33.5 51.03125 23.25  Q 51.03125 16.5 48.125 10.71875  Q 45.21875 4.9375 40.140625 1.859375  Q 35.0625 -1.21875 28.609375 -1.21875  Q 17.625 -1.21875 10.6875 6.859375  Q 3.765625 14.9375 3.765625 33.5  Q 3.765625 54.25 11.421875 63.671875  Q 18.109375 71.875 29.4375 71.875  Q 37.890625 71.875 43.28125 67.140625  Q 48.6875 62.40625 49.75 54.046875  z M 13.875 23.1875  Q 13.875 18.65625 15.796875 14.5  Q 17.71875 10.359375 21.1875 8.171875  Q 24.65625 6 28.46875 6  Q 34.03125 6 38.03125 10.484375  Q 42.046875 14.984375 42.046875 22.703125  Q 42.046875 30.125 38.078125 34.390625  Q 34.125 38.671875 28.125 38.671875  Q 22.171875 38.671875 18.015625 34.390625  Q 13.875 30.125 13.875 23.1875  z " />
              </defs>
              <g
                 id="g83"
                 transform="translate(42.31375 137.69452)rotate(-90)scale(0.11 -0.11)"
                 style="fill:#262626;">
                <use
                   id="use85"
                   xlink:href="#ArialMT-54" />
              </g>
            </g>
          </g>
          <g
             id="ytick_8">
            <g
               id="text_9">
              <!-- 7 -->
              <defs
                 id="defs89">
                <path
                   id="ArialMT-55"
                   d="M 4.734375 62.203125  L 4.734375 70.65625  L 51.078125 70.65625  L 51.078125 63.8125  Q 44.234375 56.546875 37.515625 44.484375  Q 30.8125 32.421875 27.15625 19.671875  Q 24.515625 10.6875 23.78125 0  L 14.75 0  Q 14.890625 8.453125 18.0625 20.40625  Q 21.234375 32.375 27.171875 43.484375  Q 33.109375 54.59375 39.796875 62.203125  z " />
              </defs>
              <g
                 id="g92"
                 transform="translate(42.31375 153.225949)rotate(-90)scale(0.11 -0.11)"
                 style="fill:#262626;">
                <use
                   id="use94"
                   xlink:href="#ArialMT-55" />
              </g>
            </g>
          </g>
          <g
             id="ytick_9">
            <g
               id="text_10">
              <!-- 8 -->
              <defs
                 id="defs98">
                <path
                   id="ArialMT-56"
                   d="M 17.671875 38.8125  Q 12.203125 40.828125 9.5625 44.53125  Q 6.9375 48.25 6.9375 53.421875  Q 6.9375 61.234375 12.546875 66.546875  Q 18.171875 71.875 27.484375 71.875  Q 36.859375 71.875 42.578125 66.421875  Q 48.296875 60.984375 48.296875 53.171875  Q 48.296875 48.1875 45.671875 44.5  Q 43.0625 40.828125 37.75 38.8125  Q 44.34375 36.671875 47.78125 31.875  Q 51.21875 27.09375 51.21875 20.453125  Q 51.21875 11.28125 44.71875 5.03125  Q 38.234375 -1.21875 27.640625 -1.21875  Q 17.046875 -1.21875 10.546875 5.046875  Q 4.046875 11.328125 4.046875 20.703125  Q 4.046875 27.6875 7.59375 32.390625  Q 11.140625 37.109375 17.671875 38.8125  z M 15.921875 53.71875  Q 15.921875 48.640625 19.1875 45.40625  Q 22.46875 42.1875 27.6875 42.1875  Q 32.765625 42.1875 36.015625 45.375  Q 39.265625 48.578125 39.265625 53.21875  Q 39.265625 58.0625 35.90625 61.359375  Q 32.5625 64.65625 27.59375 64.65625  Q 22.5625 64.65625 19.234375 61.421875  Q 15.921875 58.203125 15.921875 53.71875  z M 13.09375 20.65625  Q 13.09375 16.890625 14.875 13.375  Q 16.65625 9.859375 20.171875 7.921875  Q 23.6875 6 27.734375 6  Q 34.03125 6 38.125 10.046875  Q 42.234375 14.109375 42.234375 20.359375  Q 42.234375 26.703125 38.015625 30.859375  Q 33.796875 35.015625 27.4375 35.015625  Q 21.234375 35.015625 17.15625 30.90625  Q 13.09375 26.8125 13.09375 20.65625  z " />
              </defs>
              <g
                 id="g101"
                 transform="translate(42.31375 168.757377)rotate(-90)scale(0.11 -0.11)"
                 style="fill:#262626;">
                <use
                   id="use103"
                   xlink:href="#ArialMT-56" />
              </g>
            </g>
          </g>
          <g
             id="ytick_10">
            <g
               id="text_11">
              <!-- 9 -->
              <defs
                 id="defs107">
                <path
                   id="ArialMT-57"
                   d="M 5.46875 16.546875  L 13.921875 17.328125  Q 14.984375 11.375 18.015625 8.6875  Q 21.046875 6 25.78125 6  Q 29.828125 6 32.875 7.859375  Q 35.9375 9.71875 37.890625 12.8125  Q 39.84375 15.921875 41.15625 21.1875  Q 42.484375 26.46875 42.484375 31.9375  Q 42.484375 32.515625 42.4375 33.6875  Q 39.796875 29.5 35.234375 26.875  Q 30.671875 24.265625 25.34375 24.265625  Q 16.453125 24.265625 10.296875 30.703125  Q 4.15625 37.15625 4.15625 47.703125  Q 4.15625 58.59375 10.578125 65.234375  Q 17 71.875 26.65625 71.875  Q 33.640625 71.875 39.421875 68.109375  Q 45.21875 64.359375 48.21875 57.390625  Q 51.21875 50.4375 51.21875 37.25  Q 51.21875 23.53125 48.234375 15.40625  Q 45.265625 7.28125 39.375 3.03125  Q 33.5 -1.21875 25.59375 -1.21875  Q 17.1875 -1.21875 11.859375 3.4375  Q 6.546875 8.109375 5.46875 16.546875  z M 41.453125 48.140625  Q 41.453125 55.71875 37.421875 60.15625  Q 33.40625 64.59375 27.734375 64.59375  Q 21.875 64.59375 17.53125 59.8125  Q 13.1875 55.03125 13.1875 47.40625  Q 13.1875 40.578125 17.3125 36.296875  Q 21.4375 32.03125 27.484375 32.03125  Q 33.59375 32.03125 37.515625 36.296875  Q 41.453125 40.578125 41.453125 48.140625  z " />
              </defs>
              <g
                 id="g110"
                 transform="translate(42.31375 184.288806)rotate(-90)scale(0.11 -0.11)"
                 style="fill:#262626;">
                <use
                   id="use112"
                   xlink:href="#ArialMT-57" />
              </g>
            </g>
          </g>
          <g
             id="ytick_11">
            <g
               id="text_12">
              <!-- 10 -->
              <g
                 id="g116"
                 transform="translate(42.31375 205.937266)rotate(-90)scale(0.11 -0.11)"
                 style="fill:#262626;">
                <use
                   id="use118"
                   xlink:href="#ArialMT-49" />
                <path
                   style="stroke-linecap:butt;stroke-linejoin:round"
                   inkscape:connector-curvature="0"
                   d="m 59.771484,35.296875 q 0,12.703125 2.609375,20.4375 2.609375,7.75 7.75,11.9375 5.15625,4.203125 12.96875,4.203125 5.765625,0 10.109375,-2.328125 4.34375,-2.3125 7.171876,-6.6875 2.84375,-4.359375 4.45312,-10.640625 1.60938,-6.265625 1.60938,-16.921875 0,-12.59375 -2.59375,-20.328125 Q 101.27148,7.234375 96.115234,3 90.974609,-1.21875 83.099609,-1.21875 q -10.34375,0 -16.25,7.421875 -7.078125,8.9375 -7.078125,29.09375 z m 9.03125,0 q 0,-17.625 4.125,-23.46875 Q 77.052734,6 83.099609,6 q 6.0625,0 10.1875,5.859375 4.125,5.859375 4.125,23.4375 0,17.6875 -4.125,23.484375 -4.125,5.8125 -10.28125,5.8125 -6.046875,0 -9.671875,-5.125 -4.53125,-6.53125 -4.53125,-24.171875 z"
                   id="use120" />
              </g>
            </g>
          </g>
          <g
             id="ytick_12">
            <g
               id="text_13">
              <!-- 11 -->
              <g
                 id="g124"
                 transform="translate(42.31375 221.456663)rotate(-90)scale(0.11 -0.11)"
                 style="fill:#262626;">
                <use
                   id="use126"
                   xlink:href="#ArialMT-49" />
                <use
                   id="use128"
                   xlink:href="#ArialMT-49"
                   x="55.505859" />
              </g>
            </g>
          </g>
          <g
             id="ytick_13">
            <g
               id="text_14">
              <!-- 12 -->
              <g
                 id="g132"
                 transform="translate(42.31375 237.000123)rotate(-90)scale(0.11 -0.11)"
                 style="fill:#262626;">
                <use
                   id="use134"
                   xlink:href="#ArialMT-49" />
                <use
                   id="use136"
                   xlink:href="#ArialMT-50"
                   x="55.615234" />
              </g>
            </g>
          </g>
          <g
             id="ytick_14">
            <g
               id="text_15">
              <!-- 13 -->
              <g
                 id="g140"
                 transform="translate(42.31375 252.531551)rotate(-90)scale(0.11 -0.11)"
                 style="fill:#262626;">
                <use
                   id="use142"
                   xlink:href="#ArialMT-49" />
                <use
                   id="use144"
                   xlink:href="#ArialMT-51"
                   x="55.615234" />
              </g>
            </g>
          </g>
        </g>
        <g
           style="stroke-linecap:butt;stroke-linejoin:round"
           transform="matrix(0.07928803,0,0,1,49.718446,0)"
           id="QuadMesh_1">
          <path
             inkscape:connector-curvature="0"
             id="path147"
             style="fill:#d11f4c;stroke-linecap:butt;stroke-linejoin:round"
             d="m 54,34.56 267.84,0 0,15.531429 -267.84,0 L 54,34.56"
             clip-path="url(#p01f792dfdc)" />
          <path
             inkscape:connector-curvature="0"
             id="path149"
             style="fill:#241432;stroke-linecap:butt;stroke-linejoin:round"
             d="m 54,50.091429 267.84,0 0,15.531428 -267.84,0 0,-15.531428"
             clip-path="url(#p01f792dfdc)" />
          <path
             inkscape:connector-curvature="0"
             id="path151"
             style="fill:#03051a;stroke-linecap:butt;stroke-linejoin:round"
             d="m 54,65.622857 267.84,0 0,15.531429 -267.84,0 0,-15.531429"
             clip-path="url(#p01f792dfdc)" />
          <path
             inkscape:connector-curvature="0"
             id="path153"
             style="fill:#f26948;stroke-linecap:butt;stroke-linejoin:round"
             d="m 54,81.154286 267.84,0 0,15.531428 -267.84,0 0,-15.531428"
             clip-path="url(#p01f792dfdc)" />
          <path
             inkscape:connector-curvature="0"
             id="path155"
             style="fill:#faebdd;stroke-linecap:butt;stroke-linejoin:round"
             d="m 54,96.685714 267.84,0 0,15.531426 -267.84,0 0,-15.531426"
             clip-path="url(#p01f792dfdc)" />
          <path
             inkscape:connector-curvature="0"
             id="path157"
             style="fill:#7f1e5a;stroke-linecap:butt;stroke-linejoin:round"
             d="m 54,112.21714 267.84,0 0,15.53143 -267.84,0 0,-15.53143"
             clip-path="url(#p01f792dfdc)" />
          <path
             inkscape:connector-curvature="0"
             id="path159"
             style="fill:#ef5640;stroke-linecap:butt;stroke-linejoin:round"
             d="m 54,127.74857 267.84,0 0,15.53143 -267.84,0 0,-15.53143"
             clip-path="url(#p01f792dfdc)" />
          <path
             inkscape:connector-curvature="0"
             id="path161"
             style="fill:#f9ddc9;stroke-linecap:butt;stroke-linejoin:round"
             d="m 54,143.28 267.84,0 0,15.53143 -267.84,0 0,-15.53143"
             clip-path="url(#p01f792dfdc)" />
          <path
             inkscape:connector-curvature="0"
             id="path163"
             style="fill:#ef5640;stroke-linecap:butt;stroke-linejoin:round"
             d="m 54,158.81143 267.84,0 0,15.53143 -267.84,0 0,-15.53143"
             clip-path="url(#p01f792dfdc)" />
          <path
             inkscape:connector-curvature="0"
             id="path165"
             style="fill:#faebdd;stroke-linecap:butt;stroke-linejoin:round"
             d="m 54,174.34286 267.84,0 0,15.53143 -267.84,0 0,-15.53143"
             clip-path="url(#p01f792dfdc)" />
          <path
             inkscape:connector-curvature="0"
             id="path167"
             style="fill:#ad1759;stroke-linecap:butt;stroke-linejoin:round"
             d="m 54,189.87429 267.84,0 0,15.53142 -267.84,0 0,-15.53142"
             clip-path="url(#p01f792dfdc)" />
          <path
             inkscape:connector-curvature="0"
             id="path169"
             style="fill:#f9e3d2;stroke-linecap:butt;stroke-linejoin:round"
             d="m 54,205.40571 267.84,0 0,15.53143 -267.84,0 0,-15.53143"
             clip-path="url(#p01f792dfdc)" />
          <path
             inkscape:connector-curvature="0"
             id="path171"
             style="fill:#ce1d4e;stroke-linecap:butt;stroke-linejoin:round"
             d="m 54,220.93714 267.84,0 0,15.53143 -267.84,0 0,-15.53143"
             clip-path="url(#p01f792dfdc)" />
          <path
             inkscape:connector-curvature="0"
             id="path173"
             style="fill:#c51852;stroke-linecap:butt;stroke-linejoin:round"
             d="m 54,236.46857 267.84,0 0,15.53143 -267.84,0 0,-15.53143"
             clip-path="url(#p01f792dfdc)" />
        </g>
      </g>
    </g>
  </g>
  <defs
     id="defs263">
    <clipPath
       id="p01f792dfdc">
      <rect
         height="217.44"
         width="267.84"
         x="54"
         y="34.56"
         id="rect266" />
    </clipPath>
    <clipPath
       id="p55fb1a444c">
      <rect
         height="217.44"
         width="10.872"
         x="338.58"
         y="34.56"
         id="rect269" />
    </clipPath>
  </defs>
</svg>
